HIERARCHY
ROOT Hips
{
	OFFSET 0.00000 0.00000 0.00000
	CHANNELS 6 Xposition Yposition Zposition Yrotation Zrotation Xrotation 
	JOINT Lumbar
	{
		OFFSET 0 0 0
		CHANNELS 3 Zrotation Xrotation Yrotation
		JOINT Neck
		{
			OFFSET 0.00 0.2701 0.00
			CHANNELS 3 Zrotation Xrotation Yrotation
			End Site
			{
				OFFSET 0.00 0.1379 0.00
			}
		}
		JOINT RightShoulder
		{
			OFFSET 0.0119 0.2289 0.1181
			CHANNELS 3 Zrotation Xrotation Yrotation
			JOINT RightElbow
			{
				OFFSET 0.00 -0.1475 0.00
				CHANNELS 2 Zrotation Yrotation
				JOINT RightWrist
				{
					OFFSET 0.00 -0.1605 0.00
					CHANNELS 2 Zrotation Xrotation
					End Site
					{
						OFFSET 0.0040 -0.1068 0.0006
					}
				}
			}
		}
		JOINT LeftShoulder
		{
			OFFSET 0.0119 0.2289 -0.1181
			CHANNELS 3 Zrotation Xrotation Yrotation
			JOINT LeftElbow
			{
				OFFSET 0.00 -0.1475 0.00
				CHANNELS 2 Zrotation Yrotation
				JOINT LeftWrist
				{
					OFFSET 0.00 -0.1605 0.00
					CHANNELS 2 Zrotation Xrotation
					End Site
					{
						OFFSET 0.0040 -0.1068 -0.0006
					}
				}
			}
		}
	}
	JOINT RightHip
	{
		OFFSET 0.0316 -0.0424 0.0458
		CHANNELS 3 Zrotation Xrotation Yrotation
		JOINT RightKnee
		{
			OFFSET 0.00 -0.2438 0.00
			CHANNELS 1 Zrotation
			JOINT RightAnkle
			{
				OFFSET 0.00 -0.2449 0.00
				CHANNELS 3 Zrotation Xrotation Yrotation
				End Site
				{
					OFFSET 0.1237 -0.0542 0.0051
				}
			}
		}
	}
	JOINT LeftHip
	{
		OFFSET 0.0316 -0.0424 -0.0458
		CHANNELS 3 Zrotation Xrotation Yrotation
		JOINT LeftKnee
		{
			OFFSET 0.00 -0.2438 0.00
			CHANNELS 1 Zrotation
			JOINT LeftAnkle
			{
				OFFSET 0.00 -0.2449 0.00
				CHANNELS 3 Zrotation Xrotation Yrotation
				End Site
				{
					OFFSET 0.1237 -0.0542 -0.0051
				}
			}
		}
	}
}
MOTION
Frames: 22
Frame Time: 0.02
-0.00054 -0.00016 -0.00012 -170.62269 -27.59513 1.4779 44.27189 -1.37277 -7.27916 -14.24272 3.40956 -1.21964 -22.39562 -4.71466 -10.16445 26.37503 96.75945 8.8623 1.78222 -22.26763 6.10059 4.87108 30.12914 -105.15915 16.09088 -1.91732 28.55708 -3.36753 -6.93282 -20.27493 -6.60836 -3.57663 -3.96032 32.98373 6.5299 8.03675 -24.34371 -6.61471 2.07904 3.23735
-0.00017 -0.00016 -0.00024 -170.50377 -27.59938 1.4959 44.24787 -1.34118 -7.30028 -14.20732 3.35892 -1.22071 -22.41077 -4.79861 -9.95297 26.55768 96.62628 8.81316 1.77846 -22.35244 6.14925 4.61715 30.50614 -105.10212 16.04868 -1.92146 28.57426 -3.44052 -7.37626 -20.28508 -6.59211 -3.5496 -3.94636 33.05475 6.50693 7.95885 -24.35805 -6.62078 2.07838 3.23847
0.00019 -0.00015 -0.00035 -170.38439 -27.60358 1.51398 44.22389 -1.30967 -7.32127 -14.17222 3.30806 -1.22178 -22.42654 -4.88244 -9.7418 26.74054 96.49393 8.76437 1.77473 -22.43683 6.19762 4.36443 30.8821 -105.05068 16.00834 -1.92642 28.59138 -3.51339 -7.81852 -20.29526 -6.57595 -3.52271 -3.93247 33.12574 6.48394 7.88137 -24.37243 -6.62681 2.07764 3.23954
0.00055 -0.00015 -0.00047 -170.26576 -27.60783 1.53195 44.19994 -1.27817 -7.34232 -14.13693 3.25752 -1.22284 -22.44175 -4.96616 -9.53083 26.92279 96.36098 8.71532 1.77094 -22.52137 6.24608 4.11143 31.25798 -104.99508 15.96666 -1.93074 28.60854 -3.58616 -8.26059 -20.30539 -6.55975 -3.49577 -3.91856 33.19659 6.46103 7.80378 -24.38674 -6.63286 2.07696 3.24064
0.00092 -0.00015 -0.00059 -170.14772 -27.6121 1.54979 44.17595 -1.24659 -7.36349 -14.10135 3.20735 -1.22391 -22.45606 -5.04994 -9.31991 27.1044 96.22774 8.66609 1.76721 -22.60634 6.29496 3.85684 31.6348 -104.93083 15.92217 -1.93374 28.62568 -3.65901 -8.70386 -20.31546 -6.54344 -3.46869 -3.90456 33.26735 6.43815 7.72561 -24.40097 -6.63892 2.07638 3.2418
0.00128 -0.00014 -0.0007 -170.02543 -27.61609 1.56837 44.152 -1.21522 -7.38411 -14.06729 3.15505 -1.22499 -22.47491 -5.13383 -9.10833 27.2898 96.09769 8.61836 1.76355 -22.68947 6.34227 3.60795 32.0089 -104.90566 15.89038 -1.94273 28.64267 -3.73194 -9.14402 -20.32585 -6.5276 -3.44221 -3.8909 33.3388 6.41491 7.64953 -24.41567 -6.64489 2.07534 3.24272
0.00164 -0.00014 -0.00082 -169.91228 -27.62078 1.58543 44.12801 -1.18347 -7.40585 -14.03005 3.10709 -1.22603 -22.48462 -5.21745 -8.89775 27.46772 95.95952 8.56701 1.75948 -22.77634 6.39251 3.34845 32.38821 -104.80476 15.83389 -1.94013 28.6602 -3.80457 -9.58969 -20.33561 -6.51084 -3.41454 -3.87658 33.4089 6.39251 7.56957 -24.4294 -6.65107 2.07518 3.24409
0.00201 -0.00013 -0.00093 -169.7899 -27.62458 1.60393 44.10403 -1.15209 -7.42647 -13.99604 3.0551 -1.22712 -22.50275 -5.30123 -8.68728 27.65189 95.83219 8.52018 1.75628 -22.85954 6.44039 3.09765 32.76244 -104.76844 15.79866 -1.94736 28.67678 -3.87759 -10.03077 -20.34593 -6.49493 -3.38798 -3.86288 33.48004 6.36916 7.49277 -24.44405 -6.65702 2.0743 3.24508
0.00238 -0.00013 -0.00103 -169.65921 -27.62827 1.62409 44.08017 -1.12107 -7.44607 -13.96483 2.99824 -1.2282 -22.53134 -5.38564 -8.4727 27.84649 95.70482 8.4742 1.75219 -22.93913 6.48402 2.86177 33.13171 -104.83287 15.79575 -1.97015 28.69401 -3.95069 -10.46451 -20.35704 -6.48003 -3.3627 -3.8499 33.55334 6.34531 7.42148 -24.45974 -6.66283 2.07217 3.24546
0.00272 -0.00012 -0.0012 -169.58525 -27.63552 1.63438 44.05592 -1.08769 -7.47262 -13.91402 2.96956 -1.22915 -22.50027 -5.46774 -8.26898 27.98951 95.53772 8.40929 1.74736 -23.04213 6.54799 2.55294 33.53328 -104.38329 15.62595 -1.91407 28.71293 -4.02215 -10.9353 -20.3639 -6.45922 -3.32984 -3.83266 33.61685 6.32631 7.32343 -24.46921 -6.66988 2.0761 3.24889
0.00312 -0.00012 -0.00121 -169.38598 -27.63338 1.66569 44.0323 -1.05945 -7.48381 -13.90677 2.88134 -1.2305 -22.59466 -5.55385 -8.05057 28.23584 95.47994 8.39329 1.74783 -23.09405 6.57168 2.38972 33.8643 -104.97562 15.7959 -2.01749 28.72481 -4.09781 -11.33115 -20.37955 -6.45097 -3.31309 -3.82447 33.69933 6.29582 7.27868 -24.49195 -6.67403 2.06798 3.24622
0.00376 -8e-05 -0.00081 -168.88544 -27.62164 1.75337 44.01174 -1.04392 -7.45742 -14.00074 2.62943 -1.23188 -23.03788 -5.65932 -7.72048 28.81403 95.50105 8.43398 1.73027 -23.01865 6.46201 2.69948 34.02113 -108.81436 17.01178 -2.6212 28.74718 -4.17877 -11.49156 -20.42108 -6.47704 -3.34013 -3.84099 33.84957 6.24442 7.41 -24.55034 -6.67278 2.02001 3.22376
0.00447 -5e-05 -0.00022 -168.25126 -27.59813 1.86223 43.99139 -1.03368 -7.41432 -14.14084 2.31825 -1.23383 -23.60454 -5.76807 -7.38658 29.48698 95.66255 8.53457 1.72257 -22.88982 6.31601 3.14265 34.10453 -113.63292 18.54942 -3.37434 28.7579 -4.26485 -11.58114 -20.47112 -6.51588 -3.38348 -3.86664 34.01685 6.17993 7.59105 -24.62227 -6.66826 1.96095 3.19562
0.00512 -1e-05 0.00031 -167.65027 -27.56858 1.96243 43.97033 -1.02204 -7.37647 -14.27309 2.03375 -1.23625 -24.11389 -5.86881 -7.10394 30.08499 95.91742 8.66293 1.73355 -22.77677 6.2017 3.4758 34.2076 -117.74339 19.86353 -4.0171 28.75329 -4.35302 -11.72399 -20.51612 -6.54885 -3.41959 -3.88814 34.16489 6.11398 7.72765 -24.68847 -6.66347 1.91171 3.17223
0.00587 4e-05 0.00071 -167.16487 -27.58432 2.05923 43.95262 -1.00664 -7.35033 -14.35425 1.74825 -1.23569 -24.63557 -5.99374 -6.62157 30.81782 95.55172 8.57401 1.65297 -22.6985 6.02373 4.01442 34.36426 -122.9433 21.49785 -4.83589 28.83187 -4.42367 -11.78224 -20.56606 -6.58166 -3.45482 -3.90954 34.35775 6.07756 7.94945 -24.75271 -6.66573 1.84328 3.14017
0.00643 5e-05 0.00144 -166.40755 -27.5064 2.16736 43.92701 -0.99972 -7.29354 -14.54753 1.45325 -1.24133 -25.15212 -6.07327 -6.54257 31.29221 96.45832 8.93335 1.75769 -22.53637 5.96915 4.16083 34.39707 -126.13394 22.55001 -5.32792 28.73927 -4.53063 -11.99423 -20.60776 -6.61843 -3.49599 -3.93349 34.46599 5.9787 8.01453 -24.8245 -6.65298 1.81089 3.12421
0.00636 -4e-05 0.00302 -164.92931 -27.1438 2.30785 43.88765 -1.02002 -7.17519 -15.08275 1.12597 -1.26517 -25.69454 -5.98899 -7.68384 31.02988 101.31819 10.67828 2.44067 -22.14511 6.26945 3.15584 34.06074 -123.29281 21.84067 -4.84156 28.13606 -4.74887 -12.69832 -20.62436 -6.65765 -3.54732 -3.96071 34.29668 5.69152 7.55529 -24.91123 -6.59562 1.89219 3.15949
0.0061 -0.00017 0.00493 -163.18353 -26.69318 2.45773 43.83859 -1.0477 -7.0225 -15.72029 0.79535 -1.29499 -26.21172 -5.86477 -9.21477 30.50413 107.37579 12.84475 3.29871 -21.67317 6.69422 1.75857 33.61 -118.43981 20.5479 -4.02831 27.36914 -5.00136 -13.55104 -20.63245 -6.70129 -3.60439 -3.99043 34.04938 5.34517 6.94966 -25.00542 -6.52405 2.00811 3.21024
0.00597 -0.00027 0.00669 -161.56094 -26.30134 2.59928 43.78898 -1.0687 -6.87379 -16.28339 0.47935 -1.32124 -26.69769 -5.78501 -10.49393 30.09887 112.5602 14.7081 4.02905 -21.24529 7.05858 0.56374 33.24222 -114.66889 19.57197 -3.39084 26.70324 -5.22995 -14.3018 -20.64456 -6.74658 -3.66041 -4.02011 33.8634 5.03888 6.46537 -25.09808 -6.4615 2.10052 3.25031
0.00564 -0.00039 0.00845 -159.92312 -25.82812 2.75909 43.76132 -1.10402 -6.7758 -16.96926 0.10465 -1.3511 -27.37902 -5.59909 -12.07478 29.69362 119.09367 17.03286 4.95559 -20.78484 7.43792 -0.73018 32.74426 -110.22862 18.39065 -2.64452 25.92234 -5.49328 -15.1921 -20.6562 -6.7774 -3.7108 -4.0457 33.56739 4.67794 5.75868 -25.18397 -6.38778 2.22495 3.3053
0.00568 -0.00049 0.01028 -158.25996 -25.50576 2.88235 43.68433 -1.11108 -6.56143 -17.41909 -0.14617 -1.3749 -27.63221 -5.61875 -13.13678 29.22458 123.1554 18.51045 5.52422 -20.37311 7.81605 -1.91046 32.48731 -106.68601 17.49235 -2.04426 25.34502 -5.69308 -15.83211 -20.66683 -6.8386 -3.77361 -4.08 33.48356 4.41519 5.47067 -25.28479 -6.33426 2.29162 3.33329
0.00677 -0.00054 0.0123 -156.55304 -25.60402 2.90622 43.48455 -1.03945 -6.05842 -17.22612 -0.06787 -1.38023 -26.823 -6.26724 -12.52074 28.64387 119.61099 17.4165 4.98041 -20.1217 8.16067 -2.70009 32.95808 -106.16072 17.53363 -1.93599 25.34675 -5.70232 -15.70825 -20.67568 -6.98798 -3.87309 -4.14022 33.99008 4.45351 6.45384 -25.43167 -6.33758 2.18531 3.28016
